<?xml version="1.0" encoding="iso-8859-1"?>
<!-- Generator: Adobe Illustrator 19.0.0, SVG Export Plug-In . SVG Version: 6.00 Build 0)  -->
<svg version="1.1" id="Capa_1" xmlns="http://www.w3.org/2000/svg" xmlns:xlink="http://www.w3.org/1999/xlink" x="0px" y="0px"
	 viewBox="0 0 512 512" style="enable-background:new 0 0 512 512;" xml:space="preserve">
<g>
	<g>
		<path d="M416.594,227.419c-3.855,0-7.656,0.236-11.393,0.683L366.924,93.769h-59.929v30h37.282l8.562,30.049H208.978
			l-7.425-30.049h16.517v-30h-88.636v30h41.216l10.563,42.749l-46.179,69.529c-12.076-5.536-25.497-8.628-39.628-8.628
			C42.799,227.419,0,270.218,0,322.825c0,52.607,42.799,95.406,95.406,95.406c47.505,0,87.006-34.9,94.224-80.406h52.377
			l123.748-138.683l10.598,37.192c-32.552,15.206-55.165,48.255-55.165,86.491c0,52.607,42.799,95.406,95.406,95.406
			S512,375.433,512,322.825C512,270.217,469.201,227.419,416.594,227.419z M95.406,388.231c-36.065,0-65.406-29.34-65.406-65.406
			s29.341-65.406,65.406-65.406c7.988,0,15.643,1.445,22.725,4.078l-50.695,76.329h91.62
			C152.257,366.682,126.309,388.231,95.406,388.231z M123.376,307.825l19.721-29.693c7.694,8.205,13.295,18.386,15.96,29.693
			H123.376z M189.63,307.825c-3.435-21.659-14.183-40.912-29.628-55.146l30.976-46.64l25.152,101.786H189.63z M339.222,183.817
			L243.029,291.62l-26.638-107.803L339.222,183.817L339.222,183.817z M416.594,388.231c-36.065,0-65.406-29.341-65.406-65.406
			c0-24.502,13.55-45.887,33.542-57.09l17.438,61.2l28.852-8.221l-17.444-61.219c1.001-0.046,2.006-0.077,3.018-0.077
			c36.065,0,65.406,29.341,65.406,65.406S452.659,388.231,416.594,388.231z"/>
	</g>
</g>
<g>
</g>
<g>
</g>
<g>
</g>
<g>
</g>
<g>
</g>
<g>
</g>
<g>
</g>
<g>
</g>
<g>
</g>
<g>
</g>
<g>
</g>
<g>
</g>
<g>
</g>
<g>
</g>
<g>
</g>
</svg>
