<svg id="Capa_1" enable-background="new 0 0 512 512" height="512" viewBox="0 0 512 512" width="512" xmlns="http://www.w3.org/2000/svg"><g><path d="m498.615 42.064c-8.506-6.569-19.35-8.776-29.747-6.06l-113.109 29.561c-12.708 3.321-26.144 3.321-38.852 0l-100.933-26.379c-26.37-6.891-54.246-6.891-80.615 0l-109.637 28.654c-15.145 3.958-25.722 17.655-25.722 33.308v341.539c0 10.747 4.878 20.679 13.384 27.248 8.506 6.568 19.348 8.779 29.747 6.061l113.109-29.562c12.709-3.321 26.144-3.321 38.852 0l100.933 26.379c13.185 3.445 26.747 5.169 40.308 5.169 13.562 0 27.123-1.724 40.308-5.169l109.637-28.653c15.145-3.958 25.722-17.656 25.722-33.309v-341.539c0-10.747-4.879-20.679-13.385-27.248zm-290.688 117.391c33.424 0 60.616 27.191 60.616 60.615 0 17.713-22.25 52.666-58.066 91.218-.857.922-1.859 1.115-2.55 1.115-.69 0-1.692-.193-2.549-1.115-35.817-38.553-58.067-73.505-58.067-91.218 0-33.424 27.192-60.615 60.616-60.615zm274.073 251.396c0 2.013-1.36 3.774-3.308 4.283l-109.638 28.653c-21.405 5.596-44.035 5.596-65.443 0l-100.934-26.379c-3.96-1.035-7.972-1.825-12.011-2.396v-77.427c5.171 3.109 11.141 4.816 17.26 4.816 9.271 0 18.212-3.898 24.528-10.695 30.149-32.452 66.088-78.163 66.088-111.638 0-49.966-40.65-90.615-90.616-90.615-5.901 0-11.67.574-17.26 1.656v-22.383c0-8.284-6.716-15-15-15s-15 6.716-15 15v34.056c-25.985 15.948-43.355 44.625-43.355 77.285 0 25.22 20.401 57.384 43.355 85.592v109.351c-4.039.571-8.051 1.361-12.012 2.396l-113.108 29.564c-1.832.477-3.183-.283-3.825-.779-.643-.496-1.721-1.611-1.721-3.504v-341.539c0-2.013 1.36-3.773 3.307-4.282l109.638-28.654c21.406-5.596 44.037-5.596 65.443 0l100.934 26.378c3.96 1.035 7.972 1.825 12.011 2.396v301.063c0 8.284 6.716 15 15 15s15-6.716 15-15v-301.063c4.039-.571 8.052-1.361 12.012-2.396l113.11-29.561c1.829-.48 3.182.283 3.824.779.643.496 1.721 1.611 1.721 3.503z"/><path d="m207.927 238.869c7.846 0 15.363-6.899 15-15-.364-8.127-6.591-15-15-15-7.846 0-15.363 6.899-15 15 .364 8.127 6.591 15 15 15z"/></g></svg>